{"title":"Tanu.Weds.Manu.Returns.2015.BRRip.480p.Hindi.ESubs-ViZNU","uid":12177044,"size":480393610,"categoryP":"video","categoryS":"movies","magnet":"?xt=urn:btih:e5034e7c058761a21aa86ea4dd2676dc2ba3a803&amp;dn=Tanu.Weds.Manu.Returns.2015.BRRip.480p.Hindi.ESubs-ViZNU&amp;tr=udp%3A%2F%2Ftracker.openbittorrent.com%3A80&amp;tr=udp%3A%2F%2Fopen.demonii.com%3A1337&amp;tr=udp%3A%2F%2Ftracker.coppersurfer.tk%3A6969&amp;tr=udp%3A%2F%2Fexodus.desync.com%3A6969","seeders":2,"leechers":2,"uploader":"ValidusVyto","files":7,"time":1438336788,"description":"____    ____ ____    ____ .___________.  ______   \n     /   /      /   / |           | /  __    \n    /   /      /   /  `---|  |----`|  |  |  | \n        /     _    _/       |  |     |  |  |  | \n       /        |  |         |  |     |  `--'  | \n    __/         |__|         |__|      ______/  \n                                                  \nPresenting Small Encodes with quality for years!\n                                                                                                   \n                                                                                                   \n\nTanu.Weds.Manu.Returns.2015.BRRip.480p.x264.Hindi.ESubs-ViZNU\n\n\nGenre: Comedy, Drama, Romance &lt;a href=&quot;\nhttp://www.imdb.com/title/tt2140465&quot; rel=&quot;nofollow&quot; target=&quot;_NEW&quot;&gt;\nhttp://www.imdb.com/title/tt2140465&lt;/a&gt;\n\n\nGeneral\nFormat                         : MPEG-4\nFile size                      : 452 MiB\nDuration                       : 2h 7mn\nOverall bit rate               : 496 Kbps\n\nVideo\nFormat                         : AVC\nBit rate                       : 461 Kbps\nWidth                          : 720 pixels\nHeight                         : 304 pixels\nDisplay aspect ratio           : 2.35:1\nFrame rate mode                : Constant\nFrame rate                     : 24.000 fps\nBit depth                      : 8 bits\nStream size                    : 420 MiB (93%)\nWriting library                : x264 core 146 r2538 121396c\n\nAudio\nFormat                         : AAC\nDuration                       : 2h 7mn\nBit rate mode                  : Variable\nMaximum bit rate               : 63.0 Kbps\nChannel(s)                     : 2 channels\nChannel positions              : Front: L R\nSampling rate                  : 48.0 KHz \nStream size                    : 29.1 MiB (6%)\nLanguage                       : Hindi\n\nSubtitle                       : Yes\nSource                         : 720p.Bluray.DD5.1.x264-BluPanther\n\n\nScreenshots:\n &lt;a href=&quot;\nhttp://ititli.com/Tv&quot; rel=&quot;nofollow&quot; target=&quot;_NEW&quot;&gt;\nhttp://ititli.com/Tv&lt;/a&gt; &lt;a href=&quot;\nhttp://ititli.com/TR&quot; rel=&quot;nofollow&quot; target=&quot;_NEW&quot;&gt;\nhttp://ititli.com/TR&lt;/a&gt; &lt;a href=&quot;\nhttp://ititli.com/Ty&quot; rel=&quot;nofollow&quot; target=&quot;_NEW&quot;&gt;\nhttp://ititli.com/Ty&lt;/a&gt; &lt;a href=&quot;\nhttp://ititli.com/T3&quot; rel=&quot;nofollow&quot; target=&quot;_NEW&quot;&gt;\nhttp://ititli.com/T3&lt;/a&gt; &lt;a href=&quot;\nhttp://ititli.com/TE&quot; rel=&quot;nofollow&quot; target=&quot;_NEW&quot;&gt;\nhttp://ititli.com/TE&lt;/a&gt; &lt;a href=&quot;\nhttp://ititli.com/TQ&quot; rel=&quot;nofollow&quot; target=&quot;_NEW&quot;&gt;\nhttp://ititli.com/TQ&lt;/a&gt; &lt;a href=&quot;\nhttp://ititli.com/TS&quot; rel=&quot;nofollow&quot; target=&quot;_NEW&quot;&gt;\nhttp://ititli.com/TS&lt;/a&gt; &lt;a href=&quot;\nhttp://ititli.com/TZ&quot; rel=&quot;nofollow&quot; target=&quot;_NEW&quot;&gt;\nhttp://ititli.com/TZ&lt;/a&gt; &lt;a href=&quot;\nhttp://ititli.com/Tc&quot; rel=&quot;nofollow&quot; target=&quot;_NEW&quot;&gt;\nhttp://ititli.com/Tc&lt;/a&gt; &lt;a href=&quot;\nhttp://ititli.com/Ti&quot; rel=&quot;nofollow&quot; target=&quot;_NEW&quot;&gt;\nhttp://ititli.com/Ti&lt;/a&gt; &lt;a href=&quot;\nhttp://ititli.com/Tp&quot; rel=&quot;nofollow&quot; target=&quot;_NEW&quot;&gt;\nhttp://ititli.com/Tp&lt;/a&gt; &lt;a href=&quot;\nhttp://ititli.com/TD&quot; rel=&quot;nofollow&quot; target=&quot;_NEW&quot;&gt;\nhttp://ititli.com/TD&lt;/a&gt;\n\n----------------------------------------------------------------------------------------------------\n\n\nEncoder Notes: Looking For Early Access To Anything You Can Provide DVDScr, R5, DVDR, BluRay, Direct\nAudio, Music Releases and Seedboxes. If You Got anything to offer please contact us.\n\nSupport us by donating BC - 1FgwdzPsd1y25Gea8wP1qni35uGCtmkRCD","torrent":{"xt":"urn:btih:e5034e7c058761a21aa86ea4dd2676dc2ba3a803","amp;dn":"Tanu.Weds.Manu.Returns.2015.BRRip.480p.Hindi.ESubs-ViZNU","amp;tr":["udp%3A%2F%2Ftracker.openbittorrent.com%3A80","udp%3A%2F%2Fopen.demonii.com%3A1337","udp%3A%2F%2Ftracker.coppersurfer.tk%3A6969","udp%3A%2F%2Fexodus.desync.com%3A6969"],"infoHash":"e5034e7c058761a21aa86ea4dd2676dc2ba3a803","infoHashBuffer":{"type":"Buffer","data":[229,3,78,124,5,135,97,162,26,168,110,164,221,38,118,220,43,163,168,3]},"announce":[],"urlList":[]}}